<?xml version="1.0" encoding="utf-8" standalone="no"?>
<!DOCTYPE svg PUBLIC "-//W3C//DTD SVG 1.1//EN"
  "http://www.w3.org/Graphics/SVG/1.1/DTD/svg11.dtd">
<svg xmlns:xlink="http://www.w3.org/1999/xlink" width="954.65pt" height="513.36pt" viewBox="0 0 954.65 513.36" xmlns="http://www.w3.org/2000/svg" version="1.1">
 <metadata>
  <rdf:RDF xmlns:dc="http://purl.org/dc/elements/1.1/" xmlns:cc="http://creativecommons.org/ns#" xmlns:rdf="http://www.w3.org/1999/02/22-rdf-syntax-ns#">
   <cc:Work>
    <dc:type rdf:resource="http://purl.org/dc/dcmitype/StillImage"/>
    <dc:date>2026-05-31T15:34:11.642816</dc:date>
    <dc:format>image/svg+xml</dc:format>
    <dc:creator>
     <cc:Agent>
      <dc:title>Matplotlib v3.10.3, https://matplotlib.org/</dc:title>
     </cc:Agent>
    </dc:creator>
   </cc:Work>
  </rdf:RDF>
 </metadata>
 <defs>
  <style type="text/css">*{stroke-linejoin: round; stroke-linecap: butt}</style>
 </defs>
 <g id="figure_1">
  <g id="patch_1">
   <path d="M 0 513.36 
L 954.65 513.36 
L 954.65 0 
L 0 0 
z
" style="fill: #ffffff"/>
  </g>
  <g id="axes_1">
   <g id="patch_2">
    <path d="M 148.0114 501.8832 
L 468.0586 501.8832 
Q 473.0482 501.8832 473.0482 496.8936 
L 473.0482 42.1272 
Q 473.0482 37.1376 468.0586 37.1376 
L 148.0114 37.1376 
Q 143.0218 37.1376 143.0218 42.1272 
L 143.0218 496.8936 
Q 143.0218 501.8832 148.0114 501.8832 
z
" clip-path="url(#pc69208f8db)" style="fill: #f5f5f7; opacity: 0.55; stroke: #d2d2d7; stroke-linejoin: miter"/>
   </g>
   <g id="patch_3">
    <path d="M 486.5914 501.8832 
L 806.6386 501.8832 
Q 811.6282 501.8832 811.6282 496.8936 
L 811.6282 42.1272 
Q 811.6282 37.1376 806.6386 37.1376 
L 486.5914 37.1376 
Q 481.6018 37.1376 481.6018 42.1272 
L 481.6018 496.8936 
Q 481.6018 501.8832 486.5914 501.8832 
z
" clip-path="url(#pc69208f8db)" style="fill: #f5f5f7; opacity: 0.55; stroke: #d2d2d7; stroke-linejoin: miter"/>
   </g>
   <g id="line2d_1">
    <path d="M 477.325 506.16 
L 477.325 7.2 
" clip-path="url(#pc69208f8db)" style="fill: none; stroke-dasharray: 5.18,2.24; stroke-dashoffset: 0; stroke: #d2d2d7; stroke-opacity: 0.7; stroke-width: 1.4"/>
   </g>
   <g id="patch_4">
    <path d="M 196.4818 204.2892 
L 234.973 204.2892 
Q 236.755 204.2892 236.755 202.5072 
L 236.755 151.1856 
Q 236.755 149.4036 234.973 149.4036 
L 196.4818 149.4036 
Q 194.6998 149.4036 194.6998 151.1856 
L 194.6998 202.5072 
Q 194.6998 204.2892 196.4818 204.2892 
z
" clip-path="url(#pc69208f8db)" style="fill: #f5f5f7; stroke: #0071e3; stroke-width: 1.8; stroke-linejoin: miter"/>
   </g>
   <g id="patch_5">
    <path d="M 340.4674 205.3584 
L 438.8338 205.3584 
Q 443.8234 205.3584 443.8234 200.3688 
L 443.8234 153.324 
Q 443.8234 148.3344 438.8338 148.3344 
L 340.4674 148.3344 
Q 335.4778 148.3344 335.4778 153.324 
L 335.4778 200.3688 
Q 335.4778 205.3584 340.4674 205.3584 
z
" clip-path="url(#pc69208f8db)" style="fill: #0071e3; opacity: 0.14; stroke: #0071e3; stroke-width: 2; stroke-linejoin: miter"/>
   </g>
   <g id="patch_6">
    <path d="M 196.4818 306.576 
L 234.973 306.576 
Q 236.755 306.576 236.755 304.794 
L 236.755 248.4828 
Q 236.755 246.7008 234.973 246.7008 
L 196.4818 246.7008 
Q 194.6998 246.7008 194.6998 248.4828 
L 194.6998 304.794 
Q 194.6998 306.576 196.4818 306.576 
z
" clip-path="url(#pc69208f8db)" style="fill: #f5f5f7; stroke: #0071e3; stroke-width: 1.8; stroke-linejoin: miter"/>
   </g>
   <g id="patch_7">
    <path d="M 340.4674 305.1504 
L 438.8338 305.1504 
Q 443.8234 305.1504 443.8234 300.1608 
L 443.8234 253.116 
Q 443.8234 248.1264 438.8338 248.1264 
L 340.4674 248.1264 
Q 335.4778 248.1264 335.4778 253.116 
L 335.4778 300.1608 
Q 335.4778 305.1504 340.4674 305.1504 
z
" clip-path="url(#pc69208f8db)" style="fill: #0071e3; opacity: 0.14; stroke: #0071e3; stroke-width: 2; stroke-linejoin: miter"/>
   </g>
   <g id="patch_8">
    <path d="M 196.4818 408.8628 
L 234.973 408.8628 
Q 236.755 408.8628 236.755 407.0808 
L 236.755 345.78 
Q 236.755 343.998 234.973 343.998 
L 196.4818 343.998 
Q 194.6998 343.998 194.6998 345.78 
L 194.6998 407.0808 
Q 194.6998 408.8628 196.4818 408.8628 
z
" clip-path="url(#pc69208f8db)" style="fill: #f5f5f7; stroke: #0071e3; stroke-width: 1.8; stroke-linejoin: miter"/>
   </g>
   <g id="patch_9">
    <path d="M 340.4674 404.9424 
L 438.8338 404.9424 
Q 443.8234 404.9424 443.8234 399.9528 
L 443.8234 352.908 
Q 443.8234 347.9184 438.8338 347.9184 
L 340.4674 347.9184 
Q 335.4778 347.9184 335.4778 352.908 
L 335.4778 399.9528 
Q 335.4778 404.9424 340.4674 404.9424 
z
" clip-path="url(#pc69208f8db)" style="fill: #0071e3; opacity: 0.14; stroke: #0071e3; stroke-width: 2; stroke-linejoin: miter"/>
   </g>
   <g id="patch_10">
    <path d="M 656.9506 355.7592 
L 779.5522 355.7592 
Q 784.5418 355.7592 784.5418 350.7696 
L 784.5418 202.5072 
Q 784.5418 197.5176 779.5522 197.5176 
L 656.9506 197.5176 
Q 651.961 197.5176 651.961 202.5072 
L 651.961 350.7696 
Q 651.961 355.7592 656.9506 355.7592 
z
" clip-path="url(#pc69208f8db)" style="fill: #ff9f0a; opacity: 0.14; stroke: #ff9f0a; stroke-width: 2.6; stroke-linejoin: miter"/>
   </g>
   <g id="patch_11">
    <path d="M 506.5498 204.2892 
L 545.041 204.2892 
Q 546.823 204.2892 546.823 202.5072 
L 546.823 151.1856 
Q 546.823 149.4036 545.041 149.4036 
L 506.5498 149.4036 
Q 504.7678 149.4036 504.7678 151.1856 
L 504.7678 202.5072 
Q 504.7678 204.2892 506.5498 204.2892 
z
" clip-path="url(#pc69208f8db)" style="fill: #f5f5f7; stroke: #ff9f0a; stroke-width: 1.8; stroke-linejoin: miter"/>
   </g>
   <g id="patch_12">
    <path d="M 506.5498 306.576 
L 545.041 306.576 
Q 546.823 306.576 546.823 304.794 
L 546.823 248.4828 
Q 546.823 246.7008 545.041 246.7008 
L 506.5498 246.7008 
Q 504.7678 246.7008 504.7678 248.4828 
L 504.7678 304.794 
Q 504.7678 306.576 506.5498 306.576 
z
" clip-path="url(#pc69208f8db)" style="fill: #f5f5f7; stroke: #ff9f0a; stroke-width: 1.8; stroke-linejoin: miter"/>
   </g>
   <g id="patch_13">
    <path d="M 506.5498 408.8628 
L 545.041 408.8628 
Q 546.823 408.8628 546.823 407.0808 
L 546.823 345.78 
Q 546.823 343.998 545.041 343.998 
L 506.5498 343.998 
Q 504.7678 343.998 504.7678 345.78 
L 504.7678 407.0808 
Q 504.7678 408.8628 506.5498 408.8628 
z
" clip-path="url(#pc69208f8db)" style="fill: #f5f5f7; stroke: #ff9f0a; stroke-width: 1.8; stroke-linejoin: miter"/>
   </g>
   <g id="patch_14">
    <path d="M 203.410216 191.473056 
L 211.108456 191.473056 
L 211.108456 186.854112 
L 203.410216 186.854112 
z
" clip-path="url(#pc69208f8db)" style="fill: #0071e3; opacity: 0.32"/>
   </g>
   <g id="patch_15">
    <path d="M 203.410216 179.155872 
L 211.108456 179.155872 
L 211.108456 174.536928 
L 203.410216 174.536928 
z
" clip-path="url(#pc69208f8db)" style="fill: #0071e3; opacity: 0.32"/>
   </g>
   <g id="patch_16">
    <path d="M 203.410216 166.838688 
L 211.108456 166.838688 
L 211.108456 162.219744 
L 203.410216 162.219744 
z
" clip-path="url(#pc69208f8db)" style="fill: #0071e3; opacity: 0.32"/>
   </g>
   <g id="patch_17">
    <path d="M 220.346344 191.473056 
L 228.044584 191.473056 
L 228.044584 186.854112 
L 220.346344 186.854112 
z
" clip-path="url(#pc69208f8db)" style="fill: #0071e3; opacity: 0.32"/>
   </g>
   <g id="patch_18">
    <path d="M 220.346344 179.155872 
L 228.044584 179.155872 
L 228.044584 174.536928 
L 220.346344 174.536928 
z
" clip-path="url(#pc69208f8db)" style="fill: #0071e3; opacity: 0.32"/>
   </g>
   <g id="patch_19">
    <path d="M 220.346344 166.838688 
L 228.044584 166.838688 
L 228.044584 162.219744 
L 220.346344 162.219744 
z
" clip-path="url(#pc69208f8db)" style="fill: #0071e3; opacity: 0.32"/>
   </g>
   <g id="patch_20">
    <path d="M 236.972268 176.8464 
Q 287.720194 176.8464 336.455658 176.8464 
" style="fill: none; opacity: 0.72; stroke: #0071e3; stroke-width: 1.8; stroke-linecap: round"/>
    <path d="M 329.255658 173.2464 
L 336.455658 176.8464 
L 329.255658 180.4464 
z
" style="fill: #0071e3; opacity: 0.72; stroke: #0071e3; stroke-width: 1.8; stroke-linecap: round"/>
   </g>
   <g id="patch_21">
    <path d="M 203.410216 292.687092 
L 211.108456 292.687092 
L 211.108456 287.619084 
L 203.410216 287.619084 
z
" clip-path="url(#pc69208f8db)" style="fill: #0071e3; opacity: 0.32"/>
   </g>
   <g id="patch_22">
    <path d="M 203.410216 279.172404 
L 211.108456 279.172404 
L 211.108456 274.104396 
L 203.410216 274.104396 
z
" clip-path="url(#pc69208f8db)" style="fill: #0071e3; opacity: 0.32"/>
   </g>
   <g id="patch_23">
    <path d="M 203.410216 265.657716 
L 211.108456 265.657716 
L 211.108456 260.589708 
L 203.410216 260.589708 
z
" clip-path="url(#pc69208f8db)" style="fill: #0071e3; opacity: 0.32"/>
   </g>
   <g id="patch_24">
    <path d="M 220.346344 292.687092 
L 228.044584 292.687092 
L 228.044584 287.619084 
L 220.346344 287.619084 
z
" clip-path="url(#pc69208f8db)" style="fill: #0071e3; opacity: 0.32"/>
   </g>
   <g id="patch_25">
    <path d="M 220.346344 279.172404 
L 228.044584 279.172404 
L 228.044584 274.104396 
L 220.346344 274.104396 
z
" clip-path="url(#pc69208f8db)" style="fill: #0071e3; opacity: 0.32"/>
   </g>
   <g id="patch_26">
    <path d="M 220.346344 265.657716 
L 228.044584 265.657716 
L 228.044584 260.589708 
L 220.346344 260.589708 
z
" clip-path="url(#pc69208f8db)" style="fill: #0071e3; opacity: 0.32"/>
   </g>
   <g id="patch_27">
    <path d="M 236.972268 276.6384 
Q 287.720194 276.6384 336.455658 276.6384 
" style="fill: none; opacity: 0.72; stroke: #0071e3; stroke-width: 1.8; stroke-linecap: round"/>
    <path d="M 329.255658 273.0384 
L 336.455658 276.6384 
L 329.255658 280.2384 
z
" style="fill: #0071e3; opacity: 0.72; stroke: #0071e3; stroke-width: 1.8; stroke-linecap: round"/>
   </g>
   <g id="patch_28">
    <path d="M 203.410216 393.901128 
L 211.108456 393.901128 
L 211.108456 388.384056 
L 203.410216 388.384056 
z
" clip-path="url(#pc69208f8db)" style="fill: #0071e3; opacity: 0.32"/>
   </g>
   <g id="patch_29">
    <path d="M 203.410216 379.188936 
L 211.108456 379.188936 
L 211.108456 373.671864 
L 203.410216 373.671864 
z
" clip-path="url(#pc69208f8db)" style="fill: #0071e3; opacity: 0.32"/>
   </g>
   <g id="patch_30">
    <path d="M 203.410216 364.476744 
L 211.108456 364.476744 
L 211.108456 358.959672 
L 203.410216 358.959672 
z
" clip-path="url(#pc69208f8db)" style="fill: #0071e3; opacity: 0.32"/>
   </g>
   <g id="patch_31">
    <path d="M 220.346344 393.901128 
L 228.044584 393.901128 
L 228.044584 388.384056 
L 220.346344 388.384056 
z
" clip-path="url(#pc69208f8db)" style="fill: #0071e3; opacity: 0.32"/>
   </g>
   <g id="patch_32">
    <path d="M 220.346344 379.188936 
L 228.044584 379.188936 
L 228.044584 373.671864 
L 220.346344 373.671864 
z
" clip-path="url(#pc69208f8db)" style="fill: #0071e3; opacity: 0.32"/>
   </g>
   <g id="patch_33">
    <path d="M 220.346344 364.476744 
L 228.044584 364.476744 
L 228.044584 358.959672 
L 220.346344 358.959672 
z
" clip-path="url(#pc69208f8db)" style="fill: #0071e3; opacity: 0.32"/>
   </g>
   <g id="patch_34">
    <path d="M 236.972268 376.4304 
Q 287.720194 376.4304 336.455658 376.4304 
" style="fill: none; opacity: 0.72; stroke: #0071e3; stroke-width: 1.8; stroke-linecap: round"/>
    <path d="M 329.255658 372.8304 
L 336.455658 376.4304 
L 329.255658 380.0304 
z
" style="fill: #0071e3; opacity: 0.72; stroke: #0071e3; stroke-width: 1.8; stroke-linecap: round"/>
   </g>
   <g id="patch_35">
    <path d="M 513.478216 191.473056 
L 521.176456 191.473056 
L 521.176456 186.854112 
L 513.478216 186.854112 
z
" clip-path="url(#pc69208f8db)" style="fill: #ff9f0a; opacity: 0.32"/>
   </g>
   <g id="patch_36">
    <path d="M 513.478216 179.155872 
L 521.176456 179.155872 
L 521.176456 174.536928 
L 513.478216 174.536928 
z
" clip-path="url(#pc69208f8db)" style="fill: #ff9f0a; opacity: 0.32"/>
   </g>
   <g id="patch_37">
    <path d="M 513.478216 166.838688 
L 521.176456 166.838688 
L 521.176456 162.219744 
L 513.478216 162.219744 
z
" clip-path="url(#pc69208f8db)" style="fill: #ff9f0a; opacity: 0.32"/>
   </g>
   <g id="patch_38">
    <path d="M 530.414344 191.473056 
L 538.112584 191.473056 
L 538.112584 186.854112 
L 530.414344 186.854112 
z
" clip-path="url(#pc69208f8db)" style="fill: #ff9f0a; opacity: 0.32"/>
   </g>
   <g id="patch_39">
    <path d="M 530.414344 179.155872 
L 538.112584 179.155872 
L 538.112584 174.536928 
L 530.414344 174.536928 
z
" clip-path="url(#pc69208f8db)" style="fill: #ff9f0a; opacity: 0.32"/>
   </g>
   <g id="patch_40">
    <path d="M 530.414344 166.838688 
L 538.112584 166.838688 
L 538.112584 162.219744 
L 530.414344 162.219744 
z
" clip-path="url(#pc69208f8db)" style="fill: #ff9f0a; opacity: 0.32"/>
   </g>
   <g id="patch_41">
    <path d="M 546.533447 178.177244 
Q 600.995643 226.74226 653.95582 273.967895 
" style="fill: none; opacity: 0.72; stroke: #ff9f0a; stroke-width: 1.8; stroke-linecap: round"/>
    <path d="M 650.977989 266.48909 
L 653.95582 273.967895 
L 646.186077 271.862877 
z
" style="fill: #ff9f0a; opacity: 0.72; stroke: #ff9f0a; stroke-width: 1.8; stroke-linecap: round"/>
   </g>
   <g id="patch_42">
    <path d="M 513.478216 292.687092 
L 521.176456 292.687092 
L 521.176456 287.619084 
L 513.478216 287.619084 
z
" clip-path="url(#pc69208f8db)" style="fill: #ff9f0a; opacity: 0.32"/>
   </g>
   <g id="patch_43">
    <path d="M 513.478216 279.172404 
L 521.176456 279.172404 
L 521.176456 274.104396 
L 513.478216 274.104396 
z
" clip-path="url(#pc69208f8db)" style="fill: #ff9f0a; opacity: 0.32"/>
   </g>
   <g id="patch_44">
    <path d="M 513.478216 265.657716 
L 521.176456 265.657716 
L 521.176456 260.589708 
L 513.478216 260.589708 
z
" clip-path="url(#pc69208f8db)" style="fill: #ff9f0a; opacity: 0.32"/>
   </g>
   <g id="patch_45">
    <path d="M 530.414344 292.687092 
L 538.112584 292.687092 
L 538.112584 287.619084 
L 530.414344 287.619084 
z
" clip-path="url(#pc69208f8db)" style="fill: #ff9f0a; opacity: 0.32"/>
   </g>
   <g id="patch_46">
    <path d="M 530.414344 279.172404 
L 538.112584 279.172404 
L 538.112584 274.104396 
L 530.414344 274.104396 
z
" clip-path="url(#pc69208f8db)" style="fill: #ff9f0a; opacity: 0.32"/>
   </g>
   <g id="patch_47">
    <path d="M 530.414344 265.657716 
L 538.112584 265.657716 
L 538.112584 260.589708 
L 530.414344 260.589708 
z
" clip-path="url(#pc69208f8db)" style="fill: #ff9f0a; opacity: 0.32"/>
   </g>
   <g id="patch_48">
    <path d="M 547.038898 276.6384 
Q 600.993509 276.6384 652.935658 276.6384 
" style="fill: none; opacity: 0.72; stroke: #ff9f0a; stroke-width: 1.8; stroke-linecap: round"/>
    <path d="M 645.735658 273.0384 
L 652.935658 276.6384 
L 645.735658 280.2384 
z
" style="fill: #ff9f0a; opacity: 0.72; stroke: #ff9f0a; stroke-width: 1.8; stroke-linecap: round"/>
   </g>
   <g id="patch_49">
    <path d="M 513.478216 393.901128 
L 521.176456 393.901128 
L 521.176456 388.384056 
L 513.478216 388.384056 
z
" clip-path="url(#pc69208f8db)" style="fill: #ff9f0a; opacity: 0.32"/>
   </g>
   <g id="patch_50">
    <path d="M 513.478216 379.188936 
L 521.176456 379.188936 
L 521.176456 373.671864 
L 513.478216 373.671864 
z
" clip-path="url(#pc69208f8db)" style="fill: #ff9f0a; opacity: 0.32"/>
   </g>
   <g id="patch_51">
    <path d="M 513.478216 364.476744 
L 521.176456 364.476744 
L 521.176456 358.959672 
L 513.478216 358.959672 
z
" clip-path="url(#pc69208f8db)" style="fill: #ff9f0a; opacity: 0.32"/>
   </g>
   <g id="patch_52">
    <path d="M 530.414344 393.901128 
L 538.112584 393.901128 
L 538.112584 388.384056 
L 530.414344 388.384056 
z
" clip-path="url(#pc69208f8db)" style="fill: #ff9f0a; opacity: 0.32"/>
   </g>
   <g id="patch_53">
    <path d="M 530.414344 379.188936 
L 538.112584 379.188936 
L 538.112584 373.671864 
L 530.414344 373.671864 
z
" clip-path="url(#pc69208f8db)" style="fill: #ff9f0a; opacity: 0.32"/>
   </g>
   <g id="patch_54">
    <path d="M 530.414344 364.476744 
L 538.112584 364.476744 
L 538.112584 358.959672 
L 530.414344 358.959672 
z
" clip-path="url(#pc69208f8db)" style="fill: #ff9f0a; opacity: 0.32"/>
   </g>
   <g id="patch_55">
    <path d="M 546.533447 375.099556 
Q 600.995643 326.53454 653.95582 279.308905 
" style="fill: none; opacity: 0.72; stroke: #ff9f0a; stroke-width: 1.8; stroke-linecap: round"/>
    <path d="M 646.186077 281.413923 
L 653.95582 279.308905 
L 650.977989 286.78771 
z
" style="fill: #ff9f0a; opacity: 0.72; stroke: #ff9f0a; stroke-width: 1.8; stroke-linecap: round"/>
   </g>
   <g id="text_1">
    <!-- Scaling structural response prediction to a portfolio -->
    <g style="fill: #1d1d1f" transform="translate(7.2 45.771) scale(0.32 -0.32)">
     <defs>
      <path id="DejaVuSans-Bold-53" d="M 3834 4519 
L 3834 3531 
Q 3450 3703 3084 3790 
Q 2719 3878 2394 3878 
Q 1963 3878 1756 3759 
Q 1550 3641 1550 3391 
Q 1550 3203 1689 3098 
Q 1828 2994 2194 2919 
L 2706 2816 
Q 3484 2659 3812 2340 
Q 4141 2022 4141 1434 
Q 4141 663 3683 286 
Q 3225 -91 2284 -91 
Q 1841 -91 1394 -6 
Q 947 78 500 244 
L 500 1259 
Q 947 1022 1364 901 
Q 1781 781 2169 781 
Q 2563 781 2772 912 
Q 2981 1044 2981 1288 
Q 2981 1506 2839 1625 
Q 2697 1744 2272 1838 
L 1806 1941 
Q 1106 2091 782 2419 
Q 459 2747 459 3303 
Q 459 4000 909 4375 
Q 1359 4750 2203 4750 
Q 2588 4750 2994 4692 
Q 3400 4634 3834 4519 
z
" transform="scale(0.015625)"/>
      <path id="DejaVuSans-Bold-63" d="M 3366 3391 
L 3366 2478 
Q 3138 2634 2908 2709 
Q 2678 2784 2431 2784 
Q 1963 2784 1702 2511 
Q 1441 2238 1441 1747 
Q 1441 1256 1702 982 
Q 1963 709 2431 709 
Q 2694 709 2930 787 
Q 3166 866 3366 1019 
L 3366 103 
Q 3103 6 2833 -42 
Q 2563 -91 2291 -91 
Q 1344 -91 809 395 
Q 275 881 275 1747 
Q 275 2613 809 3098 
Q 1344 3584 2291 3584 
Q 2566 3584 2833 3536 
Q 3100 3488 3366 3391 
z
" transform="scale(0.015625)"/>
      <path id="DejaVuSans-Bold-61" d="M 2106 1575 
Q 1756 1575 1579 1456 
Q 1403 1338 1403 1106 
Q 1403 894 1545 773 
Q 1688 653 1941 653 
Q 2256 653 2472 879 
Q 2688 1106 2688 1447 
L 2688 1575 
L 2106 1575 
z
M 3816 1997 
L 3816 0 
L 2688 0 
L 2688 519 
Q 2463 200 2181 54 
Q 1900 -91 1497 -91 
Q 953 -91 614 226 
Q 275 544 275 1050 
Q 275 1666 698 1953 
Q 1122 2241 2028 2241 
L 2688 2241 
L 2688 2328 
Q 2688 2594 2478 2717 
Q 2269 2841 1825 2841 
Q 1466 2841 1156 2769 
Q 847 2697 581 2553 
L 581 3406 
Q 941 3494 1303 3539 
Q 1666 3584 2028 3584 
Q 2975 3584 3395 3211 
Q 3816 2838 3816 1997 
z
" transform="scale(0.015625)"/>
      <path id="DejaVuSans-Bold-6c" d="M 538 4863 
L 1656 4863 
L 1656 0 
L 538 0 
L 538 4863 
z
" transform="scale(0.015625)"/>
      <path id="DejaVuSans-Bold-69" d="M 538 3500 
L 1656 3500 
L 1656 0 
L 538 0 
L 538 3500 
z
M 538 4863 
L 1656 4863 
L 1656 3950 
L 538 3950 
L 538 4863 
z
" transform="scale(0.015625)"/>
      <path id="DejaVuSans-Bold-6e" d="M 4056 2131 
L 4056 0 
L 2931 0 
L 2931 347 
L 2931 1631 
Q 2931 2084 2911 2256 
Q 2891 2428 2841 2509 
Q 2775 2619 2662 2680 
Q 2550 2741 2406 2741 
Q 2056 2741 1856 2470 
Q 1656 2200 1656 1722 
L 1656 0 
L 538 0 
L 538 3500 
L 1656 3500 
L 1656 2988 
Q 1909 3294 2193 3439 
Q 2478 3584 2822 3584 
Q 3428 3584 3742 3212 
Q 4056 2841 4056 2131 
z
" transform="scale(0.015625)"/>
      <path id="DejaVuSans-Bold-67" d="M 2919 594 
Q 2688 288 2409 144 
Q 2131 0 1766 0 
Q 1125 0 706 504 
Q 288 1009 288 1791 
Q 288 2575 706 3076 
Q 1125 3578 1766 3578 
Q 2131 3578 2409 3434 
Q 2688 3291 2919 2981 
L 2919 3500 
L 4044 3500 
L 4044 353 
Q 4044 -491 3511 -936 
Q 2978 -1381 1966 -1381 
Q 1638 -1381 1331 -1331 
Q 1025 -1281 716 -1178 
L 716 -306 
Q 1009 -475 1290 -558 
Q 1572 -641 1856 -641 
Q 2406 -641 2662 -400 
Q 2919 -159 2919 353 
L 2919 594 
z
M 2181 2772 
Q 1834 2772 1640 2515 
Q 1447 2259 1447 1791 
Q 1447 1309 1634 1061 
Q 1822 813 2181 813 
Q 2531 813 2725 1069 
Q 2919 1325 2919 1791 
Q 2919 2259 2725 2515 
Q 2531 2772 2181 2772 
z
" transform="scale(0.015625)"/>
      <path id="DejaVuSans-Bold-20" transform="scale(0.015625)"/>
      <path id="DejaVuSans-Bold-73" d="M 3272 3391 
L 3272 2541 
Q 2913 2691 2578 2766 
Q 2244 2841 1947 2841 
Q 1628 2841 1473 2761 
Q 1319 2681 1319 2516 
Q 1319 2381 1436 2309 
Q 1553 2238 1856 2203 
L 2053 2175 
Q 2913 2066 3209 1816 
Q 3506 1566 3506 1031 
Q 3506 472 3093 190 
Q 2681 -91 1863 -91 
Q 1516 -91 1145 -36 
Q 775 19 384 128 
L 384 978 
Q 719 816 1070 734 
Q 1422 653 1784 653 
Q 2113 653 2278 743 
Q 2444 834 2444 1013 
Q 2444 1163 2330 1236 
Q 2216 1309 1875 1350 
L 1678 1375 
Q 931 1469 631 1722 
Q 331 1975 331 2491 
Q 331 3047 712 3315 
Q 1094 3584 1881 3584 
Q 2191 3584 2531 3537 
Q 2872 3491 3272 3391 
z
" transform="scale(0.015625)"/>
      <path id="DejaVuSans-Bold-74" d="M 1759 4494 
L 1759 3500 
L 2913 3500 
L 2913 2700 
L 1759 2700 
L 1759 1216 
Q 1759 972 1856 886 
Q 1953 800 2241 800 
L 2816 800 
L 2816 0 
L 1856 0 
Q 1194 0 917 276 
Q 641 553 641 1216 
L 641 2700 
L 84 2700 
L 84 3500 
L 641 3500 
L 641 4494 
L 1759 4494 
z
" transform="scale(0.015625)"/>
      <path id="DejaVuSans-Bold-72" d="M 3138 2547 
Q 2991 2616 2845 2648 
Q 2700 2681 2553 2681 
Q 2122 2681 1889 2404 
Q 1656 2128 1656 1613 
L 1656 0 
L 538 0 
L 538 3500 
L 1656 3500 
L 1656 2925 
Q 1872 3269 2151 3426 
Q 2431 3584 2822 3584 
Q 2878 3584 2943 3579 
Q 3009 3575 3134 3559 
L 3138 2547 
z
" transform="scale(0.015625)"/>
      <path id="DejaVuSans-Bold-75" d="M 500 1363 
L 500 3500 
L 1625 3500 
L 1625 3150 
Q 1625 2866 1622 2436 
Q 1619 2006 1619 1863 
Q 1619 1441 1641 1255 
Q 1663 1069 1716 984 
Q 1784 875 1895 815 
Q 2006 756 2150 756 
Q 2500 756 2700 1025 
Q 2900 1294 2900 1772 
L 2900 3500 
L 4019 3500 
L 4019 0 
L 2900 0 
L 2900 506 
Q 2647 200 2364 54 
Q 2081 -91 1741 -91 
Q 1134 -91 817 281 
Q 500 653 500 1363 
z
" transform="scale(0.015625)"/>
      <path id="DejaVuSans-Bold-65" d="M 4031 1759 
L 4031 1441 
L 1416 1441 
Q 1456 1047 1700 850 
Q 1944 653 2381 653 
Q 2734 653 3104 758 
Q 3475 863 3866 1075 
L 3866 213 
Q 3469 63 3072 -14 
Q 2675 -91 2278 -91 
Q 1328 -91 801 392 
Q 275 875 275 1747 
Q 275 2603 792 3093 
Q 1309 3584 2216 3584 
Q 3041 3584 3536 3087 
Q 4031 2591 4031 1759 
z
M 2881 2131 
Q 2881 2450 2695 2645 
Q 2509 2841 2209 2841 
Q 1884 2841 1681 2658 
Q 1478 2475 1428 2131 
L 2881 2131 
z
" transform="scale(0.015625)"/>
      <path id="DejaVuSans-Bold-70" d="M 1656 506 
L 1656 -1331 
L 538 -1331 
L 538 3500 
L 1656 3500 
L 1656 2988 
Q 1888 3294 2169 3439 
Q 2450 3584 2816 3584 
Q 3463 3584 3878 3070 
Q 4294 2556 4294 1747 
Q 4294 938 3878 423 
Q 3463 -91 2816 -91 
Q 2450 -91 2169 54 
Q 1888 200 1656 506 
z
M 2400 2772 
Q 2041 2772 1848 2508 
Q 1656 2244 1656 1747 
Q 1656 1250 1848 986 
Q 2041 722 2400 722 
Q 2759 722 2948 984 
Q 3138 1247 3138 1747 
Q 3138 2247 2948 2509 
Q 2759 2772 2400 2772 
z
" transform="scale(0.015625)"/>
      <path id="DejaVuSans-Bold-6f" d="M 2203 2784 
Q 1831 2784 1636 2517 
Q 1441 2250 1441 1747 
Q 1441 1244 1636 976 
Q 1831 709 2203 709 
Q 2569 709 2762 976 
Q 2956 1244 2956 1747 
Q 2956 2250 2762 2517 
Q 2569 2784 2203 2784 
z
M 2203 3584 
Q 3106 3584 3614 3096 
Q 4122 2609 4122 1747 
Q 4122 884 3614 396 
Q 3106 -91 2203 -91 
Q 1297 -91 786 396 
Q 275 884 275 1747 
Q 275 2609 786 3096 
Q 1297 3584 2203 3584 
z
" transform="scale(0.015625)"/>
      <path id="DejaVuSans-Bold-64" d="M 2919 2988 
L 2919 4863 
L 4044 4863 
L 4044 0 
L 2919 0 
L 2919 506 
Q 2688 197 2409 53 
Q 2131 -91 1766 -91 
Q 1119 -91 703 423 
Q 288 938 288 1747 
Q 288 2556 703 3070 
Q 1119 3584 1766 3584 
Q 2128 3584 2408 3439 
Q 2688 3294 2919 2988 
z
M 2181 722 
Q 2541 722 2730 984 
Q 2919 1247 2919 1747 
Q 2919 2247 2730 2509 
Q 2541 2772 2181 2772 
Q 1825 2772 1636 2509 
Q 1447 2247 1447 1747 
Q 1447 1247 1636 984 
Q 1825 722 2181 722 
z
" transform="scale(0.015625)"/>
      <path id="DejaVuSans-Bold-66" d="M 2841 4863 
L 2841 4128 
L 2222 4128 
Q 1984 4128 1890 4042 
Q 1797 3956 1797 3744 
L 1797 3500 
L 2753 3500 
L 2753 2700 
L 1797 2700 
L 1797 0 
L 678 0 
L 678 2700 
L 122 2700 
L 122 3500 
L 678 3500 
L 678 3744 
Q 678 4316 997 4589 
Q 1316 4863 1984 4863 
L 2841 4863 
z
" transform="scale(0.015625)"/>
     </defs>
     <use xlink:href="#DejaVuSans-Bold-53"/>
     <use xlink:href="#DejaVuSans-Bold-63" transform="translate(72.021484 0)"/>
     <use xlink:href="#DejaVuSans-Bold-61" transform="translate(131.298828 0)"/>
     <use xlink:href="#DejaVuSans-Bold-6c" transform="translate(198.779297 0)"/>
     <use xlink:href="#DejaVuSans-Bold-69" transform="translate(233.056641 0)"/>
     <use xlink:href="#DejaVuSans-Bold-6e" transform="translate(267.333984 0)"/>
     <use xlink:href="#DejaVuSans-Bold-67" transform="translate(338.525391 0)"/>
     <use xlink:href="#DejaVuSans-Bold-20" transform="translate(410.107422 0)"/>
     <use xlink:href="#DejaVuSans-Bold-73" transform="translate(444.921875 0)"/>
     <use xlink:href="#DejaVuSans-Bold-74" transform="translate(504.443359 0)"/>
     <use xlink:href="#DejaVuSans-Bold-72" transform="translate(552.246094 0)"/>
     <use xlink:href="#DejaVuSans-Bold-75" transform="translate(601.5625 0)"/>
     <use xlink:href="#DejaVuSans-Bold-63" transform="translate(672.753906 0)"/>
     <use xlink:href="#DejaVuSans-Bold-74" transform="translate(732.03125 0)"/>
     <use xlink:href="#DejaVuSans-Bold-75" transform="translate(779.833984 0)"/>
     <use xlink:href="#DejaVuSans-Bold-72" transform="translate(851.025391 0)"/>
     <use xlink:href="#DejaVuSans-Bold-61" transform="translate(900.341797 0)"/>
     <use xlink:href="#DejaVuSans-Bold-6c" transform="translate(967.822266 0)"/>
     <use xlink:href="#DejaVuSans-Bold-20" transform="translate(1002.099609 0)"/>
     <use xlink:href="#DejaVuSans-Bold-72" transform="translate(1036.914062 0)"/>
     <use xlink:href="#DejaVuSans-Bold-65" transform="translate(1086.230469 0)"/>
     <use xlink:href="#DejaVuSans-Bold-73" transform="translate(1154.052734 0)"/>
     <use xlink:href="#DejaVuSans-Bold-70" transform="translate(1213.574219 0)"/>
     <use xlink:href="#DejaVuSans-Bold-6f" transform="translate(1285.15625 0)"/>
     <use xlink:href="#DejaVuSans-Bold-6e" transform="translate(1353.857422 0)"/>
     <use xlink:href="#DejaVuSans-Bold-73" transform="translate(1425.048828 0)"/>
     <use xlink:href="#DejaVuSans-Bold-65" transform="translate(1484.570312 0)"/>
     <use xlink:href="#DejaVuSans-Bold-20" transform="translate(1552.392578 0)"/>
     <use xlink:href="#DejaVuSans-Bold-70" transform="translate(1587.207031 0)"/>
     <use xlink:href="#DejaVuSans-Bold-72" transform="translate(1658.789062 0)"/>
     <use xlink:href="#DejaVuSans-Bold-65" transform="translate(1708.105469 0)"/>
     <use xlink:href="#DejaVuSans-Bold-64" transform="translate(1775.927734 0)"/>
     <use xlink:href="#DejaVuSans-Bold-69" transform="translate(1847.509766 0)"/>
     <use xlink:href="#DejaVuSans-Bold-63" transform="translate(1881.787109 0)"/>
     <use xlink:href="#DejaVuSans-Bold-74" transform="translate(1941.064453 0)"/>
     <use xlink:href="#DejaVuSans-Bold-69" transform="translate(1988.867188 0)"/>
     <use xlink:href="#DejaVuSans-Bold-6f" transform="translate(2023.144531 0)"/>
     <use xlink:href="#DejaVuSans-Bold-6e" transform="translate(2091.845703 0)"/>
     <use xlink:href="#DejaVuSans-Bold-20" transform="translate(2163.037109 0)"/>
     <use xlink:href="#DejaVuSans-Bold-74" transform="translate(2197.851562 0)"/>
     <use xlink:href="#DejaVuSans-Bold-6f" transform="translate(2245.654297 0)"/>
     <use xlink:href="#DejaVuSans-Bold-20" transform="translate(2314.355469 0)"/>
     <use xlink:href="#DejaVuSans-Bold-61" transform="translate(2349.169922 0)"/>
     <use xlink:href="#DejaVuSans-Bold-20" transform="translate(2416.650391 0)"/>
     <use xlink:href="#DejaVuSans-Bold-70" transform="translate(2451.464844 0)"/>
     <use xlink:href="#DejaVuSans-Bold-6f" transform="translate(2523.046875 0)"/>
     <use xlink:href="#DejaVuSans-Bold-72" transform="translate(2591.748047 0)"/>
     <use xlink:href="#DejaVuSans-Bold-74" transform="translate(2641.064453 0)"/>
     <use xlink:href="#DejaVuSans-Bold-66" transform="translate(2688.867188 0)"/>
     <use xlink:href="#DejaVuSans-Bold-6f" transform="translate(2732.373047 0)"/>
     <use xlink:href="#DejaVuSans-Bold-6c" transform="translate(2801.074219 0)"/>
     <use xlink:href="#DejaVuSans-Bold-69" transform="translate(2835.351562 0)"/>
     <use xlink:href="#DejaVuSans-Bold-6f" transform="translate(2869.628906 0)"/>
    </g>
   </g>
   <g id="text_2">
    <!-- Conventional -->
    <g style="fill: #6e6e73" transform="translate(174.615625 74.15775) scale(0.36 -0.36)">
     <defs>
      <path id="DejaVuSans-Bold-43" d="M 4288 256 
Q 3956 84 3597 -3 
Q 3238 -91 2847 -91 
Q 1681 -91 1000 561 
Q 319 1213 319 2328 
Q 319 3447 1000 4098 
Q 1681 4750 2847 4750 
Q 3238 4750 3597 4662 
Q 3956 4575 4288 4403 
L 4288 3438 
Q 3953 3666 3628 3772 
Q 3303 3878 2944 3878 
Q 2300 3878 1931 3465 
Q 1563 3053 1563 2328 
Q 1563 1606 1931 1193 
Q 2300 781 2944 781 
Q 3303 781 3628 887 
Q 3953 994 4288 1222 
L 4288 256 
z
" transform="scale(0.015625)"/>
      <path id="DejaVuSans-Bold-76" d="M 97 3500 
L 1216 3500 
L 2088 1081 
L 2956 3500 
L 4078 3500 
L 2700 0 
L 1472 0 
L 97 3500 
z
" transform="scale(0.015625)"/>
     </defs>
     <use xlink:href="#DejaVuSans-Bold-43"/>
     <use xlink:href="#DejaVuSans-Bold-6f" transform="translate(73.388672 0)"/>
     <use xlink:href="#DejaVuSans-Bold-6e" transform="translate(142.089844 0)"/>
     <use xlink:href="#DejaVuSans-Bold-76" transform="translate(213.28125 0)"/>
     <use xlink:href="#DejaVuSans-Bold-65" transform="translate(278.466797 0)"/>
     <use xlink:href="#DejaVuSans-Bold-6e" transform="translate(346.289062 0)"/>
     <use xlink:href="#DejaVuSans-Bold-74" transform="translate(417.480469 0)"/>
     <use xlink:href="#DejaVuSans-Bold-69" transform="translate(465.283203 0)"/>
     <use xlink:href="#DejaVuSans-Bold-6f" transform="translate(499.560547 0)"/>
     <use xlink:href="#DejaVuSans-Bold-6e" transform="translate(568.261719 0)"/>
     <use xlink:href="#DejaVuSans-Bold-61" transform="translate(639.453125 0)"/>
     <use xlink:href="#DejaVuSans-Bold-6c" transform="translate(706.933594 0)"/>
    </g>
   </g>
   <g id="text_3">
    <!-- ✗  one training run per building -->
    <g style="fill: #ff3b30" transform="translate(66.673984 128.592844) scale(0.27 -0.27)">
     <defs>
      <path id="DejaVuSans-Bold-2717" d="M 3975 4688 
Q 4006 4688 4056 4638 
Q 4109 4588 4166 4506 
Q 4256 4666 4309 4666 
Q 4356 4666 4438 4581 
Q 4488 4528 4488 4463 
Q 4488 4378 4419 4306 
Q 3769 3600 3156 2753 
Q 3409 2134 3856 1388 
Q 3894 1325 3894 1288 
Q 3894 1216 3800 1138 
L 3700 1069 
Q 3713 1031 3713 969 
Q 3713 875 3644 825 
Q 3563 769 3525 769 
Q 3444 769 3381 850 
Q 3006 1331 2606 1981 
Q 2069 1281 1375 113 
Q 1275 -56 1038 -56 
Q 925 -56 913 75 
Q 753 163 753 353 
Q 753 603 788 700 
Q 803 744 888 875 
Q 1525 1869 2238 2700 
Q 1856 3606 1731 4097 
Q 1703 4206 1703 4238 
Q 1703 4281 1759 4363 
Q 1819 4444 1869 4444 
Q 1916 4444 1988 4353 
Q 2016 4406 2056 4444 
Q 2113 4494 2200 4494 
Q 2300 4494 2331 4400 
Q 2500 3875 2775 3400 
Q 3219 3975 3856 4613 
Q 3931 4688 3975 4688 
z
" transform="scale(0.015625)"/>
      <path id="DejaVuSans-Bold-62" d="M 2400 722 
Q 2759 722 2948 984 
Q 3138 1247 3138 1747 
Q 3138 2247 2948 2509 
Q 2759 2772 2400 2772 
Q 2041 2772 1848 2508 
Q 1656 2244 1656 1747 
Q 1656 1250 1848 986 
Q 2041 722 2400 722 
z
M 1656 2988 
Q 1888 3294 2169 3439 
Q 2450 3584 2816 3584 
Q 3463 3584 3878 3070 
Q 4294 2556 4294 1747 
Q 4294 938 3878 423 
Q 3463 -91 2816 -91 
Q 2450 -91 2169 54 
Q 1888 200 1656 506 
L 1656 0 
L 538 0 
L 538 4863 
L 1656 4863 
L 1656 2988 
z
" transform="scale(0.015625)"/>
     </defs>
     <use xlink:href="#DejaVuSans-Bold-2717"/>
     <use xlink:href="#DejaVuSans-Bold-20" transform="translate(83.789062 0)"/>
     <use xlink:href="#DejaVuSans-Bold-20" transform="translate(118.603516 0)"/>
     <use xlink:href="#DejaVuSans-Bold-6f" transform="translate(153.417969 0)"/>
     <use xlink:href="#DejaVuSans-Bold-6e" transform="translate(222.119141 0)"/>
     <use xlink:href="#DejaVuSans-Bold-65" transform="translate(293.310547 0)"/>
     <use xlink:href="#DejaVuSans-Bold-20" transform="translate(361.132812 0)"/>
     <use xlink:href="#DejaVuSans-Bold-74" transform="translate(395.947266 0)"/>
     <use xlink:href="#DejaVuSans-Bold-72" transform="translate(443.75 0)"/>
     <use xlink:href="#DejaVuSans-Bold-61" transform="translate(493.066406 0)"/>
     <use xlink:href="#DejaVuSans-Bold-69" transform="translate(560.546875 0)"/>
     <use xlink:href="#DejaVuSans-Bold-6e" transform="translate(594.824219 0)"/>
     <use xlink:href="#DejaVuSans-Bold-69" transform="translate(666.015625 0)"/>
     <use xlink:href="#DejaVuSans-Bold-6e" transform="translate(700.292969 0)"/>
     <use xlink:href="#DejaVuSans-Bold-67" transform="translate(771.484375 0)"/>
     <use xlink:href="#DejaVuSans-Bold-20" transform="translate(843.066406 0)"/>
     <use xlink:href="#DejaVuSans-Bold-72" transform="translate(877.880859 0)"/>
     <use xlink:href="#DejaVuSans-Bold-75" transform="translate(927.197266 0)"/>
     <use xlink:href="#DejaVuSans-Bold-6e" transform="translate(998.388672 0)"/>
     <use xlink:href="#DejaVuSans-Bold-20" transform="translate(1069.580078 0)"/>
     <use xlink:href="#DejaVuSans-Bold-70" transform="translate(1104.394531 0)"/>
     <use xlink:href="#DejaVuSans-Bold-65" transform="translate(1175.976562 0)"/>
     <use xlink:href="#DejaVuSans-Bold-72" transform="translate(1243.798828 0)"/>
     <use xlink:href="#DejaVuSans-Bold-20" transform="translate(1293.115234 0)"/>
     <use xlink:href="#DejaVuSans-Bold-62" transform="translate(1327.929688 0)"/>
     <use xlink:href="#DejaVuSans-Bold-75" transform="translate(1399.511719 0)"/>
     <use xlink:href="#DejaVuSans-Bold-69" transform="translate(1470.703125 0)"/>
     <use xlink:href="#DejaVuSans-Bold-6c" transform="translate(1504.980469 0)"/>
     <use xlink:href="#DejaVuSans-Bold-64" transform="translate(1539.257812 0)"/>
     <use xlink:href="#DejaVuSans-Bold-69" transform="translate(1610.839844 0)"/>
     <use xlink:href="#DejaVuSans-Bold-6e" transform="translate(1645.117188 0)"/>
     <use xlink:href="#DejaVuSans-Bold-67" transform="translate(1716.308594 0)"/>
    </g>
   </g>
   <g id="text_4">
    <!-- Model 1 -->
    <g style="fill: #0071e3" transform="translate(336.094975 183.4689) scale(0.24 -0.24)">
     <defs>
      <path id="DejaVuSans-Bold-4d" d="M 588 4666 
L 2119 4666 
L 3181 2169 
L 4250 4666 
L 5778 4666 
L 5778 0 
L 4641 0 
L 4641 3413 
L 3566 897 
L 2803 897 
L 1728 3413 
L 1728 0 
L 588 0 
L 588 4666 
z
" transform="scale(0.015625)"/>
      <path id="DejaVuSans-Bold-31" d="M 750 831 
L 1813 831 
L 1813 3847 
L 722 3622 
L 722 4441 
L 1806 4666 
L 2950 4666 
L 2950 831 
L 4013 831 
L 4013 0 
L 750 0 
L 750 831 
z
" transform="scale(0.015625)"/>
     </defs>
     <use xlink:href="#DejaVuSans-Bold-4d"/>
     <use xlink:href="#DejaVuSans-Bold-6f" transform="translate(99.511719 0)"/>
     <use xlink:href="#DejaVuSans-Bold-64" transform="translate(168.212891 0)"/>
     <use xlink:href="#DejaVuSans-Bold-65" transform="translate(239.794922 0)"/>
     <use xlink:href="#DejaVuSans-Bold-6c" transform="translate(307.617188 0)"/>
     <use xlink:href="#DejaVuSans-Bold-20" transform="translate(341.894531 0)"/>
     <use xlink:href="#DejaVuSans-Bold-31" transform="translate(376.708984 0)"/>
    </g>
   </g>
   <g id="text_5">
    <!-- Model 2 -->
    <g style="fill: #0071e3" transform="translate(336.094975 283.2609) scale(0.24 -0.24)">
     <defs>
      <path id="DejaVuSans-Bold-32" d="M 1844 884 
L 3897 884 
L 3897 0 
L 506 0 
L 506 884 
L 2209 2388 
Q 2438 2594 2547 2791 
Q 2656 2988 2656 3200 
Q 2656 3528 2436 3728 
Q 2216 3928 1850 3928 
Q 1569 3928 1234 3808 
Q 900 3688 519 3450 
L 519 4475 
Q 925 4609 1322 4679 
Q 1719 4750 2100 4750 
Q 2938 4750 3402 4381 
Q 3866 4013 3866 3353 
Q 3866 2972 3669 2642 
Q 3472 2313 2841 1759 
L 1844 884 
z
" transform="scale(0.015625)"/>
     </defs>
     <use xlink:href="#DejaVuSans-Bold-4d"/>
     <use xlink:href="#DejaVuSans-Bold-6f" transform="translate(99.511719 0)"/>
     <use xlink:href="#DejaVuSans-Bold-64" transform="translate(168.212891 0)"/>
     <use xlink:href="#DejaVuSans-Bold-65" transform="translate(239.794922 0)"/>
     <use xlink:href="#DejaVuSans-Bold-6c" transform="translate(307.617188 0)"/>
     <use xlink:href="#DejaVuSans-Bold-20" transform="translate(341.894531 0)"/>
     <use xlink:href="#DejaVuSans-Bold-32" transform="translate(376.708984 0)"/>
    </g>
   </g>
   <g id="text_6">
    <!-- Model 3 -->
    <g style="fill: #0071e3" transform="translate(336.094975 383.0529) scale(0.24 -0.24)">
     <defs>
      <path id="DejaVuSans-Bold-33" d="M 2981 2516 
Q 3453 2394 3698 2092 
Q 3944 1791 3944 1325 
Q 3944 631 3412 270 
Q 2881 -91 1863 -91 
Q 1503 -91 1142 -33 
Q 781 25 428 141 
L 428 1069 
Q 766 900 1098 814 
Q 1431 728 1753 728 
Q 2231 728 2486 893 
Q 2741 1059 2741 1369 
Q 2741 1688 2480 1852 
Q 2219 2016 1709 2016 
L 1228 2016 
L 1228 2791 
L 1734 2791 
Q 2188 2791 2409 2933 
Q 2631 3075 2631 3366 
Q 2631 3634 2415 3781 
Q 2200 3928 1806 3928 
Q 1516 3928 1219 3862 
Q 922 3797 628 3669 
L 628 4550 
Q 984 4650 1334 4700 
Q 1684 4750 2022 4750 
Q 2931 4750 3382 4451 
Q 3834 4153 3834 3553 
Q 3834 3144 3618 2883 
Q 3403 2622 2981 2516 
z
" transform="scale(0.015625)"/>
     </defs>
     <use xlink:href="#DejaVuSans-Bold-4d"/>
     <use xlink:href="#DejaVuSans-Bold-6f" transform="translate(99.511719 0)"/>
     <use xlink:href="#DejaVuSans-Bold-64" transform="translate(168.212891 0)"/>
     <use xlink:href="#DejaVuSans-Bold-65" transform="translate(239.794922 0)"/>
     <use xlink:href="#DejaVuSans-Bold-6c" transform="translate(307.617188 0)"/>
     <use xlink:href="#DejaVuSans-Bold-20" transform="translate(341.894531 0)"/>
     <use xlink:href="#DejaVuSans-Bold-33" transform="translate(376.708984 0)"/>
    </g>
   </g>
   <g id="text_7">
    <!-- N buildings -->
    <g style="fill: #6e6e73" transform="translate(154.211619 432.397025) scale(0.22 -0.22)">
     <defs>
      <path id="DejaVuSans-4e" d="M 628 4666 
L 1478 4666 
L 3547 763 
L 3547 4666 
L 4159 4666 
L 4159 0 
L 3309 0 
L 1241 3903 
L 1241 0 
L 628 0 
L 628 4666 
z
" transform="scale(0.015625)"/>
      <path id="DejaVuSans-20" transform="scale(0.015625)"/>
      <path id="DejaVuSans-62" d="M 3116 1747 
Q 3116 2381 2855 2742 
Q 2594 3103 2138 3103 
Q 1681 3103 1420 2742 
Q 1159 2381 1159 1747 
Q 1159 1113 1420 752 
Q 1681 391 2138 391 
Q 2594 391 2855 752 
Q 3116 1113 3116 1747 
z
M 1159 2969 
Q 1341 3281 1617 3432 
Q 1894 3584 2278 3584 
Q 2916 3584 3314 3078 
Q 3713 2572 3713 1747 
Q 3713 922 3314 415 
Q 2916 -91 2278 -91 
Q 1894 -91 1617 61 
Q 1341 213 1159 525 
L 1159 0 
L 581 0 
L 581 4863 
L 1159 4863 
L 1159 2969 
z
" transform="scale(0.015625)"/>
      <path id="DejaVuSans-75" d="M 544 1381 
L 544 3500 
L 1119 3500 
L 1119 1403 
Q 1119 906 1312 657 
Q 1506 409 1894 409 
Q 2359 409 2629 706 
Q 2900 1003 2900 1516 
L 2900 3500 
L 3475 3500 
L 3475 0 
L 2900 0 
L 2900 538 
Q 2691 219 2414 64 
Q 2138 -91 1772 -91 
Q 1169 -91 856 284 
Q 544 659 544 1381 
z
M 1991 3584 
L 1991 3584 
z
" transform="scale(0.015625)"/>
      <path id="DejaVuSans-69" d="M 603 3500 
L 1178 3500 
L 1178 0 
L 603 0 
L 603 3500 
z
M 603 4863 
L 1178 4863 
L 1178 4134 
L 603 4134 
L 603 4863 
z
" transform="scale(0.015625)"/>
      <path id="DejaVuSans-6c" d="M 603 4863 
L 1178 4863 
L 1178 0 
L 603 0 
L 603 4863 
z
" transform="scale(0.015625)"/>
      <path id="DejaVuSans-64" d="M 2906 2969 
L 2906 4863 
L 3481 4863 
L 3481 0 
L 2906 0 
L 2906 525 
Q 2725 213 2448 61 
Q 2172 -91 1784 -91 
Q 1150 -91 751 415 
Q 353 922 353 1747 
Q 353 2572 751 3078 
Q 1150 3584 1784 3584 
Q 2172 3584 2448 3432 
Q 2725 3281 2906 2969 
z
M 947 1747 
Q 947 1113 1208 752 
Q 1469 391 1925 391 
Q 2381 391 2643 752 
Q 2906 1113 2906 1747 
Q 2906 2381 2643 2742 
Q 2381 3103 1925 3103 
Q 1469 3103 1208 2742 
Q 947 2381 947 1747 
z
" transform="scale(0.015625)"/>
      <path id="DejaVuSans-6e" d="M 3513 2113 
L 3513 0 
L 2938 0 
L 2938 2094 
Q 2938 2591 2744 2837 
Q 2550 3084 2163 3084 
Q 1697 3084 1428 2787 
Q 1159 2491 1159 1978 
L 1159 0 
L 581 0 
L 581 3500 
L 1159 3500 
L 1159 2956 
Q 1366 3272 1645 3428 
Q 1925 3584 2291 3584 
Q 2894 3584 3203 3211 
Q 3513 2838 3513 2113 
z
" transform="scale(0.015625)"/>
      <path id="DejaVuSans-67" d="M 2906 1791 
Q 2906 2416 2648 2759 
Q 2391 3103 1925 3103 
Q 1463 3103 1205 2759 
Q 947 2416 947 1791 
Q 947 1169 1205 825 
Q 1463 481 1925 481 
Q 2391 481 2648 825 
Q 2906 1169 2906 1791 
z
M 3481 434 
Q 3481 -459 3084 -895 
Q 2688 -1331 1869 -1331 
Q 1566 -1331 1297 -1286 
Q 1028 -1241 775 -1147 
L 775 -588 
Q 1028 -725 1275 -790 
Q 1522 -856 1778 -856 
Q 2344 -856 2625 -561 
Q 2906 -266 2906 331 
L 2906 616 
Q 2728 306 2450 153 
Q 2172 0 1784 0 
Q 1141 0 747 490 
Q 353 981 353 1791 
Q 353 2603 747 3093 
Q 1141 3584 1784 3584 
Q 2172 3584 2450 3431 
Q 2728 3278 2906 2969 
L 2906 3500 
L 3481 3500 
L 3481 434 
z
" transform="scale(0.015625)"/>
      <path id="DejaVuSans-73" d="M 2834 3397 
L 2834 2853 
Q 2591 2978 2328 3040 
Q 2066 3103 1784 3103 
Q 1356 3103 1142 2972 
Q 928 2841 928 2578 
Q 928 2378 1081 2264 
Q 1234 2150 1697 2047 
L 1894 2003 
Q 2506 1872 2764 1633 
Q 3022 1394 3022 966 
Q 3022 478 2636 193 
Q 2250 -91 1575 -91 
Q 1294 -91 989 -36 
Q 684 19 347 128 
L 347 722 
Q 666 556 975 473 
Q 1284 391 1588 391 
Q 1994 391 2212 530 
Q 2431 669 2431 922 
Q 2431 1156 2273 1281 
Q 2116 1406 1581 1522 
L 1381 1569 
Q 847 1681 609 1914 
Q 372 2147 372 2553 
Q 372 3047 722 3315 
Q 1072 3584 1716 3584 
Q 2034 3584 2315 3537 
Q 2597 3491 2834 3397 
z
" transform="scale(0.015625)"/>
     </defs>
     <use xlink:href="#DejaVuSans-4e"/>
     <use xlink:href="#DejaVuSans-20" transform="translate(74.804688 0)"/>
     <use xlink:href="#DejaVuSans-62" transform="translate(106.591797 0)"/>
     <use xlink:href="#DejaVuSans-75" transform="translate(170.068359 0)"/>
     <use xlink:href="#DejaVuSans-69" transform="translate(233.447266 0)"/>
     <use xlink:href="#DejaVuSans-6c" transform="translate(261.230469 0)"/>
     <use xlink:href="#DejaVuSans-64" transform="translate(289.013672 0)"/>
     <use xlink:href="#DejaVuSans-69" transform="translate(352.490234 0)"/>
     <use xlink:href="#DejaVuSans-6e" transform="translate(380.273438 0)"/>
     <use xlink:href="#DejaVuSans-67" transform="translate(443.652344 0)"/>
     <use xlink:href="#DejaVuSans-73" transform="translate(507.128906 0)"/>
    </g>
   </g>
   <g id="text_8">
    <!-- N models -->
    <g style="fill: #6e6e73" transform="translate(337.942006 432.397025) scale(0.22 -0.22)">
     <defs>
      <path id="DejaVuSans-6d" d="M 3328 2828 
Q 3544 3216 3844 3400 
Q 4144 3584 4550 3584 
Q 5097 3584 5394 3201 
Q 5691 2819 5691 2113 
L 5691 0 
L 5113 0 
L 5113 2094 
Q 5113 2597 4934 2840 
Q 4756 3084 4391 3084 
Q 3944 3084 3684 2787 
Q 3425 2491 3425 1978 
L 3425 0 
L 2847 0 
L 2847 2094 
Q 2847 2600 2669 2842 
Q 2491 3084 2119 3084 
Q 1678 3084 1418 2786 
Q 1159 2488 1159 1978 
L 1159 0 
L 581 0 
L 581 3500 
L 1159 3500 
L 1159 2956 
Q 1356 3278 1631 3431 
Q 1906 3584 2284 3584 
Q 2666 3584 2933 3390 
Q 3200 3197 3328 2828 
z
" transform="scale(0.015625)"/>
      <path id="DejaVuSans-6f" d="M 1959 3097 
Q 1497 3097 1228 2736 
Q 959 2375 959 1747 
Q 959 1119 1226 758 
Q 1494 397 1959 397 
Q 2419 397 2687 759 
Q 2956 1122 2956 1747 
Q 2956 2369 2687 2733 
Q 2419 3097 1959 3097 
z
M 1959 3584 
Q 2709 3584 3137 3096 
Q 3566 2609 3566 1747 
Q 3566 888 3137 398 
Q 2709 -91 1959 -91 
Q 1206 -91 779 398 
Q 353 888 353 1747 
Q 353 2609 779 3096 
Q 1206 3584 1959 3584 
z
" transform="scale(0.015625)"/>
      <path id="DejaVuSans-65" d="M 3597 1894 
L 3597 1613 
L 953 1613 
Q 991 1019 1311 708 
Q 1631 397 2203 397 
Q 2534 397 2845 478 
Q 3156 559 3463 722 
L 3463 178 
Q 3153 47 2828 -22 
Q 2503 -91 2169 -91 
Q 1331 -91 842 396 
Q 353 884 353 1716 
Q 353 2575 817 3079 
Q 1281 3584 2069 3584 
Q 2775 3584 3186 3129 
Q 3597 2675 3597 1894 
z
M 3022 2063 
Q 3016 2534 2758 2815 
Q 2500 3097 2075 3097 
Q 1594 3097 1305 2825 
Q 1016 2553 972 2059 
L 3022 2063 
z
" transform="scale(0.015625)"/>
     </defs>
     <use xlink:href="#DejaVuSans-4e"/>
     <use xlink:href="#DejaVuSans-20" transform="translate(74.804688 0)"/>
     <use xlink:href="#DejaVuSans-6d" transform="translate(106.591797 0)"/>
     <use xlink:href="#DejaVuSans-6f" transform="translate(204.003906 0)"/>
     <use xlink:href="#DejaVuSans-64" transform="translate(265.185547 0)"/>
     <use xlink:href="#DejaVuSans-65" transform="translate(328.662109 0)"/>
     <use xlink:href="#DejaVuSans-6c" transform="translate(390.185547 0)"/>
     <use xlink:href="#DejaVuSans-73" transform="translate(417.96875 0)"/>
    </g>
   </g>
   <g id="text_9">
    <g id="patch_56">
     <path d="M 145.056875 499.766825 
L 471.013125 499.766825 
Q 475.013125 499.766825 475.013125 495.766825 
L 475.013125 450.975575 
Q 475.013125 446.975575 471.013125 446.975575 
L 145.056875 446.975575 
Q 141.056875 446.975575 141.056875 450.975575 
L 141.056875 495.766825 
Q 141.056875 499.766825 145.056875 499.766825 
z
" style="fill: #ffffff; opacity: 0.95; stroke: #0071e3; stroke-width: 1.5; stroke-linejoin: miter"/>
    </g>
    <!-- N buildings  →  N trained models -->
    <g style="fill: #0071e3" transform="translate(145.056875 466.17245) scale(0.2 -0.2)">
     <defs>
      <path id="DejaVuSans-2192" d="M 5050 2147 
L 5050 1866 
L 3822 638 
L 3447 1013 
L 4175 1741 
L 366 1741 
L 366 2272 
L 4175 2272 
L 3447 3000 
L 3822 3375 
L 5050 2147 
z
" transform="scale(0.015625)"/>
      <path id="DejaVuSans-74" d="M 1172 4494 
L 1172 3500 
L 2356 3500 
L 2356 3053 
L 1172 3053 
L 1172 1153 
Q 1172 725 1289 603 
Q 1406 481 1766 481 
L 2356 481 
L 2356 0 
L 1766 0 
Q 1100 0 847 248 
Q 594 497 594 1153 
L 594 3053 
L 172 3053 
L 172 3500 
L 594 3500 
L 594 4494 
L 1172 4494 
z
" transform="scale(0.015625)"/>
      <path id="DejaVuSans-72" d="M 2631 2963 
Q 2534 3019 2420 3045 
Q 2306 3072 2169 3072 
Q 1681 3072 1420 2755 
Q 1159 2438 1159 1844 
L 1159 0 
L 581 0 
L 581 3500 
L 1159 3500 
L 1159 2956 
Q 1341 3275 1631 3429 
Q 1922 3584 2338 3584 
Q 2397 3584 2469 3576 
Q 2541 3569 2628 3553 
L 2631 2963 
z
" transform="scale(0.015625)"/>
      <path id="DejaVuSans-61" d="M 2194 1759 
Q 1497 1759 1228 1600 
Q 959 1441 959 1056 
Q 959 750 1161 570 
Q 1363 391 1709 391 
Q 2188 391 2477 730 
Q 2766 1069 2766 1631 
L 2766 1759 
L 2194 1759 
z
M 3341 1997 
L 3341 0 
L 2766 0 
L 2766 531 
Q 2569 213 2275 61 
Q 1981 -91 1556 -91 
Q 1019 -91 701 211 
Q 384 513 384 1019 
Q 384 1609 779 1909 
Q 1175 2209 1959 2209 
L 2766 2209 
L 2766 2266 
Q 2766 2663 2505 2880 
Q 2244 3097 1772 3097 
Q 1472 3097 1187 3025 
Q 903 2953 641 2809 
L 641 3341 
Q 956 3463 1253 3523 
Q 1550 3584 1831 3584 
Q 2591 3584 2966 3190 
Q 3341 2797 3341 1997 
z
" transform="scale(0.015625)"/>
     </defs>
     <use xlink:href="#DejaVuSans-4e"/>
     <use xlink:href="#DejaVuSans-20" transform="translate(74.804688 0)"/>
     <use xlink:href="#DejaVuSans-62" transform="translate(106.591797 0)"/>
     <use xlink:href="#DejaVuSans-75" transform="translate(170.068359 0)"/>
     <use xlink:href="#DejaVuSans-69" transform="translate(233.447266 0)"/>
     <use xlink:href="#DejaVuSans-6c" transform="translate(261.230469 0)"/>
     <use xlink:href="#DejaVuSans-64" transform="translate(289.013672 0)"/>
     <use xlink:href="#DejaVuSans-69" transform="translate(352.490234 0)"/>
     <use xlink:href="#DejaVuSans-6e" transform="translate(380.273438 0)"/>
     <use xlink:href="#DejaVuSans-67" transform="translate(443.652344 0)"/>
     <use xlink:href="#DejaVuSans-73" transform="translate(507.128906 0)"/>
     <use xlink:href="#DejaVuSans-20" transform="translate(559.228516 0)"/>
     <use xlink:href="#DejaVuSans-20" transform="translate(591.015625 0)"/>
     <use xlink:href="#DejaVuSans-2192" transform="translate(622.802734 0)"/>
     <use xlink:href="#DejaVuSans-20" transform="translate(706.591797 0)"/>
     <use xlink:href="#DejaVuSans-20" transform="translate(738.378906 0)"/>
     <use xlink:href="#DejaVuSans-4e" transform="translate(770.166016 0)"/>
     <use xlink:href="#DejaVuSans-20" transform="translate(844.970703 0)"/>
     <use xlink:href="#DejaVuSans-74" transform="translate(876.757812 0)"/>
     <use xlink:href="#DejaVuSans-72" transform="translate(915.966797 0)"/>
     <use xlink:href="#DejaVuSans-61" transform="translate(957.080078 0)"/>
     <use xlink:href="#DejaVuSans-69" transform="translate(1018.359375 0)"/>
     <use xlink:href="#DejaVuSans-6e" transform="translate(1046.142578 0)"/>
     <use xlink:href="#DejaVuSans-65" transform="translate(1109.521484 0)"/>
     <use xlink:href="#DejaVuSans-64" transform="translate(1171.044922 0)"/>
     <use xlink:href="#DejaVuSans-20" transform="translate(1234.521484 0)"/>
     <use xlink:href="#DejaVuSans-6d" transform="translate(1266.308594 0)"/>
     <use xlink:href="#DejaVuSans-6f" transform="translate(1363.720703 0)"/>
     <use xlink:href="#DejaVuSans-64" transform="translate(1424.902344 0)"/>
     <use xlink:href="#DejaVuSans-65" transform="translate(1488.378906 0)"/>
     <use xlink:href="#DejaVuSans-6c" transform="translate(1549.902344 0)"/>
     <use xlink:href="#DejaVuSans-73" transform="translate(1577.685547 0)"/>
    </g>
    <!-- No sharing across buildings -->
    <g style="fill: #0071e3" transform="translate(170.336562 491.60745) scale(0.2 -0.2)">
     <defs>
      <path id="DejaVuSans-68" d="M 3513 2113 
L 3513 0 
L 2938 0 
L 2938 2094 
Q 2938 2591 2744 2837 
Q 2550 3084 2163 3084 
Q 1697 3084 1428 2787 
Q 1159 2491 1159 1978 
L 1159 0 
L 581 0 
L 581 4863 
L 1159 4863 
L 1159 2956 
Q 1366 3272 1645 3428 
Q 1925 3584 2291 3584 
Q 2894 3584 3203 3211 
Q 3513 2838 3513 2113 
z
" transform="scale(0.015625)"/>
      <path id="DejaVuSans-63" d="M 3122 3366 
L 3122 2828 
Q 2878 2963 2633 3030 
Q 2388 3097 2138 3097 
Q 1578 3097 1268 2742 
Q 959 2388 959 1747 
Q 959 1106 1268 751 
Q 1578 397 2138 397 
Q 2388 397 2633 464 
Q 2878 531 3122 666 
L 3122 134 
Q 2881 22 2623 -34 
Q 2366 -91 2075 -91 
Q 1284 -91 818 406 
Q 353 903 353 1747 
Q 353 2603 823 3093 
Q 1294 3584 2113 3584 
Q 2378 3584 2631 3529 
Q 2884 3475 3122 3366 
z
" transform="scale(0.015625)"/>
     </defs>
     <use xlink:href="#DejaVuSans-4e"/>
     <use xlink:href="#DejaVuSans-6f" transform="translate(74.804688 0)"/>
     <use xlink:href="#DejaVuSans-20" transform="translate(135.986328 0)"/>
     <use xlink:href="#DejaVuSans-73" transform="translate(167.773438 0)"/>
     <use xlink:href="#DejaVuSans-68" transform="translate(219.873047 0)"/>
     <use xlink:href="#DejaVuSans-61" transform="translate(283.251953 0)"/>
     <use xlink:href="#DejaVuSans-72" transform="translate(344.53125 0)"/>
     <use xlink:href="#DejaVuSans-69" transform="translate(385.644531 0)"/>
     <use xlink:href="#DejaVuSans-6e" transform="translate(413.427734 0)"/>
     <use xlink:href="#DejaVuSans-67" transform="translate(476.806641 0)"/>
     <use xlink:href="#DejaVuSans-20" transform="translate(540.283203 0)"/>
     <use xlink:href="#DejaVuSans-61" transform="translate(572.070312 0)"/>
     <use xlink:href="#DejaVuSans-63" transform="translate(633.349609 0)"/>
     <use xlink:href="#DejaVuSans-72" transform="translate(688.330078 0)"/>
     <use xlink:href="#DejaVuSans-6f" transform="translate(727.193359 0)"/>
     <use xlink:href="#DejaVuSans-73" transform="translate(788.375 0)"/>
     <use xlink:href="#DejaVuSans-73" transform="translate(840.474609 0)"/>
     <use xlink:href="#DejaVuSans-20" transform="translate(892.574219 0)"/>
     <use xlink:href="#DejaVuSans-62" transform="translate(924.361328 0)"/>
     <use xlink:href="#DejaVuSans-75" transform="translate(987.837891 0)"/>
     <use xlink:href="#DejaVuSans-69" transform="translate(1051.216797 0)"/>
     <use xlink:href="#DejaVuSans-6c" transform="translate(1079 0)"/>
     <use xlink:href="#DejaVuSans-64" transform="translate(1106.783203 0)"/>
     <use xlink:href="#DejaVuSans-69" transform="translate(1170.259766 0)"/>
     <use xlink:href="#DejaVuSans-6e" transform="translate(1198.042969 0)"/>
     <use xlink:href="#DejaVuSans-67" transform="translate(1261.421875 0)"/>
     <use xlink:href="#DejaVuSans-73" transform="translate(1324.898438 0)"/>
    </g>
   </g>
   <g id="text_10">
    <!-- HyperNetwork -->
    <g style="fill: #6e6e73" transform="translate(500.12875 74.017125) scale(0.36 -0.36)">
     <defs>
      <path id="DejaVuSans-Bold-48" d="M 588 4666 
L 1791 4666 
L 1791 2888 
L 3566 2888 
L 3566 4666 
L 4769 4666 
L 4769 0 
L 3566 0 
L 3566 1978 
L 1791 1978 
L 1791 0 
L 588 0 
L 588 4666 
z
" transform="scale(0.015625)"/>
      <path id="DejaVuSans-Bold-79" d="M 78 3500 
L 1197 3500 
L 2138 1125 
L 2938 3500 
L 4056 3500 
L 2584 -331 
Q 2363 -916 2067 -1148 
Q 1772 -1381 1288 -1381 
L 641 -1381 
L 641 -647 
L 991 -647 
Q 1275 -647 1404 -556 
Q 1534 -466 1606 -231 
L 1638 -134 
L 78 3500 
z
" transform="scale(0.015625)"/>
      <path id="DejaVuSans-Bold-4e" d="M 588 4666 
L 1931 4666 
L 3628 1466 
L 3628 4666 
L 4769 4666 
L 4769 0 
L 3425 0 
L 1728 3200 
L 1728 0 
L 588 0 
L 588 4666 
z
" transform="scale(0.015625)"/>
      <path id="DejaVuSans-Bold-77" d="M 225 3500 
L 1313 3500 
L 1900 1088 
L 2491 3500 
L 3425 3500 
L 4013 1113 
L 4603 3500 
L 5691 3500 
L 4769 0 
L 3547 0 
L 2956 2406 
L 2369 0 
L 1147 0 
L 225 3500 
z
" transform="scale(0.015625)"/>
      <path id="DejaVuSans-Bold-6b" d="M 538 4863 
L 1656 4863 
L 1656 2216 
L 2944 3500 
L 4244 3500 
L 2534 1894 
L 4378 0 
L 3022 0 
L 1656 1459 
L 1656 0 
L 538 0 
L 538 4863 
z
" transform="scale(0.015625)"/>
     </defs>
     <use xlink:href="#DejaVuSans-Bold-48"/>
     <use xlink:href="#DejaVuSans-Bold-79" transform="translate(83.691406 0)"/>
     <use xlink:href="#DejaVuSans-Bold-70" transform="translate(148.876953 0)"/>
     <use xlink:href="#DejaVuSans-Bold-65" transform="translate(220.458984 0)"/>
     <use xlink:href="#DejaVuSans-Bold-72" transform="translate(288.28125 0)"/>
     <use xlink:href="#DejaVuSans-Bold-4e" transform="translate(337.597656 0)"/>
     <use xlink:href="#DejaVuSans-Bold-65" transform="translate(421.289062 0)"/>
     <use xlink:href="#DejaVuSans-Bold-74" transform="translate(489.111328 0)"/>
     <use xlink:href="#DejaVuSans-Bold-77" transform="translate(536.914062 0)"/>
     <use xlink:href="#DejaVuSans-Bold-6f" transform="translate(629.296875 0)"/>
     <use xlink:href="#DejaVuSans-Bold-72" transform="translate(697.998047 0)"/>
     <use xlink:href="#DejaVuSans-Bold-6b" transform="translate(747.314453 0)"/>
    </g>
   </g>
   <g id="text_11">
    <!-- ✓  one model for any building -->
    <g style="fill: #34c759" transform="translate(420.852812 128.592844) scale(0.27 -0.27)">
     <defs>
      <path id="DejaVuSans-Bold-2713" d="M 1416 2044 
Q 1538 2044 1600 1844 
Q 1725 1469 1778 1469 
Q 1819 1469 1863 1531 
Q 2741 2938 3488 3806 
Q 3681 4031 4103 4031 
Q 4203 4031 4237 4012 
Q 4272 3994 4272 3966 
Q 4272 3922 4169 3794 
Q 2963 2344 1931 731 
Q 1859 619 1638 619 
Q 1413 619 1372 638 
Q 1266 684 1122 1116 
Q 959 1594 959 1716 
Q 959 1847 1178 1969 
Q 1313 2044 1416 2044 
z
" transform="scale(0.015625)"/>
      <path id="DejaVuSans-Bold-6d" d="M 3781 2919 
Q 3994 3244 4286 3414 
Q 4578 3584 4928 3584 
Q 5531 3584 5847 3212 
Q 6163 2841 6163 2131 
L 6163 0 
L 5038 0 
L 5038 1825 
Q 5041 1866 5042 1909 
Q 5044 1953 5044 2034 
Q 5044 2406 4934 2573 
Q 4825 2741 4581 2741 
Q 4263 2741 4089 2478 
Q 3916 2216 3909 1719 
L 3909 0 
L 2784 0 
L 2784 1825 
Q 2784 2406 2684 2573 
Q 2584 2741 2328 2741 
Q 2006 2741 1831 2477 
Q 1656 2213 1656 1722 
L 1656 0 
L 531 0 
L 531 3500 
L 1656 3500 
L 1656 2988 
Q 1863 3284 2130 3434 
Q 2397 3584 2719 3584 
Q 3081 3584 3359 3409 
Q 3638 3234 3781 2919 
z
" transform="scale(0.015625)"/>
     </defs>
     <use xlink:href="#DejaVuSans-Bold-2713"/>
     <use xlink:href="#DejaVuSans-Bold-20" transform="translate(83.789062 0)"/>
     <use xlink:href="#DejaVuSans-Bold-20" transform="translate(118.603516 0)"/>
     <use xlink:href="#DejaVuSans-Bold-6f" transform="translate(153.417969 0)"/>
     <use xlink:href="#DejaVuSans-Bold-6e" transform="translate(222.119141 0)"/>
     <use xlink:href="#DejaVuSans-Bold-65" transform="translate(293.310547 0)"/>
     <use xlink:href="#DejaVuSans-Bold-20" transform="translate(361.132812 0)"/>
     <use xlink:href="#DejaVuSans-Bold-6d" transform="translate(395.947266 0)"/>
     <use xlink:href="#DejaVuSans-Bold-6f" transform="translate(500.146484 0)"/>
     <use xlink:href="#DejaVuSans-Bold-64" transform="translate(568.847656 0)"/>
     <use xlink:href="#DejaVuSans-Bold-65" transform="translate(640.429688 0)"/>
     <use xlink:href="#DejaVuSans-Bold-6c" transform="translate(708.251953 0)"/>
     <use xlink:href="#DejaVuSans-Bold-20" transform="translate(742.529297 0)"/>
     <use xlink:href="#DejaVuSans-Bold-66" transform="translate(777.34375 0)"/>
     <use xlink:href="#DejaVuSans-Bold-6f" transform="translate(820.849609 0)"/>
     <use xlink:href="#DejaVuSans-Bold-72" transform="translate(889.550781 0)"/>
     <use xlink:href="#DejaVuSans-Bold-20" transform="translate(938.867188 0)"/>
     <use xlink:href="#DejaVuSans-Bold-61" transform="translate(973.681641 0)"/>
     <use xlink:href="#DejaVuSans-Bold-6e" transform="translate(1041.162109 0)"/>
     <use xlink:href="#DejaVuSans-Bold-79" transform="translate(1112.353516 0)"/>
     <use xlink:href="#DejaVuSans-Bold-20" transform="translate(1177.539062 0)"/>
     <use xlink:href="#DejaVuSans-Bold-62" transform="translate(1212.353516 0)"/>
     <use xlink:href="#DejaVuSans-Bold-75" transform="translate(1283.935547 0)"/>
     <use xlink:href="#DejaVuSans-Bold-69" transform="translate(1355.126953 0)"/>
     <use xlink:href="#DejaVuSans-Bold-6c" transform="translate(1389.404297 0)"/>
     <use xlink:href="#DejaVuSans-Bold-64" transform="translate(1423.681641 0)"/>
     <use xlink:href="#DejaVuSans-Bold-69" transform="translate(1495.263672 0)"/>
     <use xlink:href="#DejaVuSans-Bold-6e" transform="translate(1529.541016 0)"/>
     <use xlink:href="#DejaVuSans-Bold-67" transform="translate(1600.732422 0)"/>
    </g>
   </g>
   <g id="text_12">
    <!-- Hyper -->
    <g style="fill: #ff9f0a" transform="translate(677.74015 255.286838) scale(0.24 -0.24)">
     <use xlink:href="#DejaVuSans-Bold-48"/>
     <use xlink:href="#DejaVuSans-Bold-79" transform="translate(83.691406 0)"/>
     <use xlink:href="#DejaVuSans-Bold-70" transform="translate(148.876953 0)"/>
     <use xlink:href="#DejaVuSans-Bold-65" transform="translate(220.458984 0)"/>
     <use xlink:href="#DejaVuSans-Bold-72" transform="translate(288.28125 0)"/>
    </g>
    <!-- Network -->
    <g style="fill: #ff9f0a" transform="translate(661.10515 283.2609) scale(0.24 -0.24)">
     <use xlink:href="#DejaVuSans-Bold-4e"/>
     <use xlink:href="#DejaVuSans-Bold-65" transform="translate(83.691406 0)"/>
     <use xlink:href="#DejaVuSans-Bold-74" transform="translate(151.513672 0)"/>
     <use xlink:href="#DejaVuSans-Bold-77" transform="translate(199.316406 0)"/>
     <use xlink:href="#DejaVuSans-Bold-6f" transform="translate(291.699219 0)"/>
     <use xlink:href="#DejaVuSans-Bold-72" transform="translate(360.400391 0)"/>
     <use xlink:href="#DejaVuSans-Bold-6b" transform="translate(409.716797 0)"/>
    </g>
    <!-- (shared) -->
    <g style="fill: #ff9f0a" transform="translate(660.8539 311.047463) scale(0.24 -0.24)">
     <defs>
      <path id="DejaVuSans-Bold-28" d="M 2413 -844 
L 1484 -844 
Q 1006 -72 778 623 
Q 550 1319 550 2003 
Q 550 2688 779 3389 
Q 1009 4091 1484 4856 
L 2413 4856 
Q 2013 4116 1813 3408 
Q 1613 2700 1613 2009 
Q 1613 1319 1811 609 
Q 2009 -100 2413 -844 
z
" transform="scale(0.015625)"/>
      <path id="DejaVuSans-Bold-68" d="M 4056 2131 
L 4056 0 
L 2931 0 
L 2931 347 
L 2931 1625 
Q 2931 2084 2911 2256 
Q 2891 2428 2841 2509 
Q 2775 2619 2662 2680 
Q 2550 2741 2406 2741 
Q 2056 2741 1856 2470 
Q 1656 2200 1656 1722 
L 1656 0 
L 538 0 
L 538 4863 
L 1656 4863 
L 1656 2988 
Q 1909 3294 2193 3439 
Q 2478 3584 2822 3584 
Q 3428 3584 3742 3212 
Q 4056 2841 4056 2131 
z
" transform="scale(0.015625)"/>
      <path id="DejaVuSans-Bold-29" d="M 513 -844 
Q 913 -100 1113 609 
Q 1313 1319 1313 2009 
Q 1313 2700 1113 3408 
Q 913 4116 513 4856 
L 1441 4856 
Q 1916 4091 2145 3389 
Q 2375 2688 2375 2003 
Q 2375 1319 2147 623 
Q 1919 -72 1441 -844 
L 513 -844 
z
" transform="scale(0.015625)"/>
     </defs>
     <use xlink:href="#DejaVuSans-Bold-28"/>
     <use xlink:href="#DejaVuSans-Bold-73" transform="translate(45.703125 0)"/>
     <use xlink:href="#DejaVuSans-Bold-68" transform="translate(105.224609 0)"/>
     <use xlink:href="#DejaVuSans-Bold-61" transform="translate(176.416016 0)"/>
     <use xlink:href="#DejaVuSans-Bold-72" transform="translate(243.896484 0)"/>
     <use xlink:href="#DejaVuSans-Bold-65" transform="translate(293.212891 0)"/>
     <use xlink:href="#DejaVuSans-Bold-64" transform="translate(361.035156 0)"/>
     <use xlink:href="#DejaVuSans-Bold-29" transform="translate(432.617188 0)"/>
    </g>
   </g>
   <g id="text_13">
    <!-- N buildings -->
    <g style="fill: #6e6e73" transform="translate(464.279619 432.397025) scale(0.22 -0.22)">
     <use xlink:href="#DejaVuSans-4e"/>
     <use xlink:href="#DejaVuSans-20" transform="translate(74.804688 0)"/>
     <use xlink:href="#DejaVuSans-62" transform="translate(106.591797 0)"/>
     <use xlink:href="#DejaVuSans-75" transform="translate(170.068359 0)"/>
     <use xlink:href="#DejaVuSans-69" transform="translate(233.447266 0)"/>
     <use xlink:href="#DejaVuSans-6c" transform="translate(261.230469 0)"/>
     <use xlink:href="#DejaVuSans-64" transform="translate(289.013672 0)"/>
     <use xlink:href="#DejaVuSans-69" transform="translate(352.490234 0)"/>
     <use xlink:href="#DejaVuSans-6e" transform="translate(380.273438 0)"/>
     <use xlink:href="#DejaVuSans-67" transform="translate(443.652344 0)"/>
     <use xlink:href="#DejaVuSans-73" transform="translate(507.128906 0)"/>
    </g>
   </g>
   <g id="text_14">
    <!-- 1 shared model -->
    <g style="fill: #6e6e73" transform="translate(632.539056 432.397025) scale(0.22 -0.22)">
     <defs>
      <path id="DejaVuSans-31" d="M 794 531 
L 1825 531 
L 1825 4091 
L 703 3866 
L 703 4441 
L 1819 4666 
L 2450 4666 
L 2450 531 
L 3481 531 
L 3481 0 
L 794 0 
L 794 531 
z
" transform="scale(0.015625)"/>
     </defs>
     <use xlink:href="#DejaVuSans-31"/>
     <use xlink:href="#DejaVuSans-20" transform="translate(63.623047 0)"/>
     <use xlink:href="#DejaVuSans-73" transform="translate(95.410156 0)"/>
     <use xlink:href="#DejaVuSans-68" transform="translate(147.509766 0)"/>
     <use xlink:href="#DejaVuSans-61" transform="translate(210.888672 0)"/>
     <use xlink:href="#DejaVuSans-72" transform="translate(272.167969 0)"/>
     <use xlink:href="#DejaVuSans-65" transform="translate(311.03125 0)"/>
     <use xlink:href="#DejaVuSans-64" transform="translate(372.554688 0)"/>
     <use xlink:href="#DejaVuSans-20" transform="translate(436.03125 0)"/>
     <use xlink:href="#DejaVuSans-6d" transform="translate(467.818359 0)"/>
     <use xlink:href="#DejaVuSans-6f" transform="translate(565.230469 0)"/>
     <use xlink:href="#DejaVuSans-64" transform="translate(626.412109 0)"/>
     <use xlink:href="#DejaVuSans-65" transform="translate(689.888672 0)"/>
     <use xlink:href="#DejaVuSans-6c" transform="translate(751.412109 0)"/>
    </g>
   </g>
   <g id="text_15">
    <g id="patch_57">
     <path d="M 437.574375 499.766825 
L 855.655625 499.766825 
Q 859.655625 499.766825 859.655625 495.766825 
L 859.655625 450.975575 
Q 859.655625 446.975575 855.655625 446.975575 
L 437.574375 446.975575 
Q 433.574375 446.975575 433.574375 450.975575 
L 433.574375 495.766825 
Q 433.574375 499.766825 437.574375 499.766825 
z
" style="fill: #ffffff; opacity: 0.95; stroke: #ff9f0a; stroke-width: 1.5; stroke-linejoin: miter"/>
    </g>
    <!-- N buildings  →  1 model,  no retraining -->
    <g style="fill: #ff9f0a" transform="translate(454.972812 466.17245) scale(0.2 -0.2)">
     <defs>
      <path id="DejaVuSans-2c" d="M 750 794 
L 1409 794 
L 1409 256 
L 897 -744 
L 494 -744 
L 750 256 
L 750 794 
z
" transform="scale(0.015625)"/>
     </defs>
     <use xlink:href="#DejaVuSans-4e"/>
     <use xlink:href="#DejaVuSans-20" transform="translate(74.804688 0)"/>
     <use xlink:href="#DejaVuSans-62" transform="translate(106.591797 0)"/>
     <use xlink:href="#DejaVuSans-75" transform="translate(170.068359 0)"/>
     <use xlink:href="#DejaVuSans-69" transform="translate(233.447266 0)"/>
     <use xlink:href="#DejaVuSans-6c" transform="translate(261.230469 0)"/>
     <use xlink:href="#DejaVuSans-64" transform="translate(289.013672 0)"/>
     <use xlink:href="#DejaVuSans-69" transform="translate(352.490234 0)"/>
     <use xlink:href="#DejaVuSans-6e" transform="translate(380.273438 0)"/>
     <use xlink:href="#DejaVuSans-67" transform="translate(443.652344 0)"/>
     <use xlink:href="#DejaVuSans-73" transform="translate(507.128906 0)"/>
     <use xlink:href="#DejaVuSans-20" transform="translate(559.228516 0)"/>
     <use xlink:href="#DejaVuSans-20" transform="translate(591.015625 0)"/>
     <use xlink:href="#DejaVuSans-2192" transform="translate(622.802734 0)"/>
     <use xlink:href="#DejaVuSans-20" transform="translate(706.591797 0)"/>
     <use xlink:href="#DejaVuSans-20" transform="translate(738.378906 0)"/>
     <use xlink:href="#DejaVuSans-31" transform="translate(770.166016 0)"/>
     <use xlink:href="#DejaVuSans-20" transform="translate(833.789062 0)"/>
     <use xlink:href="#DejaVuSans-6d" transform="translate(865.576172 0)"/>
     <use xlink:href="#DejaVuSans-6f" transform="translate(962.988281 0)"/>
     <use xlink:href="#DejaVuSans-64" transform="translate(1024.169922 0)"/>
     <use xlink:href="#DejaVuSans-65" transform="translate(1087.646484 0)"/>
     <use xlink:href="#DejaVuSans-6c" transform="translate(1149.169922 0)"/>
     <use xlink:href="#DejaVuSans-2c" transform="translate(1176.953125 0)"/>
     <use xlink:href="#DejaVuSans-20" transform="translate(1208.740234 0)"/>
     <use xlink:href="#DejaVuSans-20" transform="translate(1240.527344 0)"/>
     <use xlink:href="#DejaVuSans-6e" transform="translate(1272.314453 0)"/>
     <use xlink:href="#DejaVuSans-6f" transform="translate(1335.693359 0)"/>
     <use xlink:href="#DejaVuSans-20" transform="translate(1396.875 0)"/>
     <use xlink:href="#DejaVuSans-72" transform="translate(1428.662109 0)"/>
     <use xlink:href="#DejaVuSans-65" transform="translate(1467.525391 0)"/>
     <use xlink:href="#DejaVuSans-74" transform="translate(1529.048828 0)"/>
     <use xlink:href="#DejaVuSans-72" transform="translate(1568.257812 0)"/>
     <use xlink:href="#DejaVuSans-61" transform="translate(1609.371094 0)"/>
     <use xlink:href="#DejaVuSans-69" transform="translate(1670.650391 0)"/>
     <use xlink:href="#DejaVuSans-6e" transform="translate(1698.433594 0)"/>
     <use xlink:href="#DejaVuSans-69" transform="translate(1761.8125 0)"/>
     <use xlink:href="#DejaVuSans-6e" transform="translate(1789.595703 0)"/>
     <use xlink:href="#DejaVuSans-67" transform="translate(1852.974609 0)"/>
    </g>
    <!-- Weights generated from building features -->
    <g style="fill: #ff9f0a" transform="translate(437.574375 491.60745) scale(0.2 -0.2)">
     <defs>
      <path id="DejaVuSans-57" d="M 213 4666 
L 850 4666 
L 1831 722 
L 2809 4666 
L 3519 4666 
L 4500 722 
L 5478 4666 
L 6119 4666 
L 4947 0 
L 4153 0 
L 3169 4050 
L 2175 0 
L 1381 0 
L 213 4666 
z
" transform="scale(0.015625)"/>
      <path id="DejaVuSans-66" d="M 2375 4863 
L 2375 4384 
L 1825 4384 
Q 1516 4384 1395 4259 
Q 1275 4134 1275 3809 
L 1275 3500 
L 2222 3500 
L 2222 3053 
L 1275 3053 
L 1275 0 
L 697 0 
L 697 3053 
L 147 3053 
L 147 3500 
L 697 3500 
L 697 3744 
Q 697 4328 969 4595 
Q 1241 4863 1831 4863 
L 2375 4863 
z
" transform="scale(0.015625)"/>
     </defs>
     <use xlink:href="#DejaVuSans-57"/>
     <use xlink:href="#DejaVuSans-65" transform="translate(93.001953 0)"/>
     <use xlink:href="#DejaVuSans-69" transform="translate(154.525391 0)"/>
     <use xlink:href="#DejaVuSans-67" transform="translate(182.308594 0)"/>
     <use xlink:href="#DejaVuSans-68" transform="translate(245.785156 0)"/>
     <use xlink:href="#DejaVuSans-74" transform="translate(309.164062 0)"/>
     <use xlink:href="#DejaVuSans-73" transform="translate(348.373047 0)"/>
     <use xlink:href="#DejaVuSans-20" transform="translate(400.472656 0)"/>
     <use xlink:href="#DejaVuSans-67" transform="translate(432.259766 0)"/>
     <use xlink:href="#DejaVuSans-65" transform="translate(495.736328 0)"/>
     <use xlink:href="#DejaVuSans-6e" transform="translate(557.259766 0)"/>
     <use xlink:href="#DejaVuSans-65" transform="translate(620.638672 0)"/>
     <use xlink:href="#DejaVuSans-72" transform="translate(682.162109 0)"/>
     <use xlink:href="#DejaVuSans-61" transform="translate(723.275391 0)"/>
     <use xlink:href="#DejaVuSans-74" transform="translate(784.554688 0)"/>
     <use xlink:href="#DejaVuSans-65" transform="translate(823.763672 0)"/>
     <use xlink:href="#DejaVuSans-64" transform="translate(885.287109 0)"/>
     <use xlink:href="#DejaVuSans-20" transform="translate(948.763672 0)"/>
     <use xlink:href="#DejaVuSans-66" transform="translate(980.550781 0)"/>
     <use xlink:href="#DejaVuSans-72" transform="translate(1015.755859 0)"/>
     <use xlink:href="#DejaVuSans-6f" transform="translate(1054.619141 0)"/>
     <use xlink:href="#DejaVuSans-6d" transform="translate(1115.800781 0)"/>
     <use xlink:href="#DejaVuSans-20" transform="translate(1213.212891 0)"/>
     <use xlink:href="#DejaVuSans-62" transform="translate(1245 0)"/>
     <use xlink:href="#DejaVuSans-75" transform="translate(1308.476562 0)"/>
     <use xlink:href="#DejaVuSans-69" transform="translate(1371.855469 0)"/>
     <use xlink:href="#DejaVuSans-6c" transform="translate(1399.638672 0)"/>
     <use xlink:href="#DejaVuSans-64" transform="translate(1427.421875 0)"/>
     <use xlink:href="#DejaVuSans-69" transform="translate(1490.898438 0)"/>
     <use xlink:href="#DejaVuSans-6e" transform="translate(1518.681641 0)"/>
     <use xlink:href="#DejaVuSans-67" transform="translate(1582.060547 0)"/>
     <use xlink:href="#DejaVuSans-20" transform="translate(1645.537109 0)"/>
     <use xlink:href="#DejaVuSans-66" transform="translate(1677.324219 0)"/>
     <use xlink:href="#DejaVuSans-65" transform="translate(1712.529297 0)"/>
     <use xlink:href="#DejaVuSans-61" transform="translate(1774.052734 0)"/>
     <use xlink:href="#DejaVuSans-74" transform="translate(1835.332031 0)"/>
     <use xlink:href="#DejaVuSans-75" transform="translate(1874.541016 0)"/>
     <use xlink:href="#DejaVuSans-72" transform="translate(1937.919922 0)"/>
     <use xlink:href="#DejaVuSans-65" transform="translate(1976.783203 0)"/>
     <use xlink:href="#DejaVuSans-73" transform="translate(2038.306641 0)"/>
    </g>
   </g>
   <g id="patch_58">
    <path d="M 477.325 309.4272 
C 486.020691 309.4272 494.3614 305.972365 500.510183 299.823583 
C 506.658965 293.6748 510.1138 285.334091 510.1138 276.6384 
C 510.1138 267.942709 506.658965 259.602 500.510183 253.453217 
C 494.3614 247.304435 486.020691 243.8496 477.325 243.8496 
C 468.629309 243.8496 460.2886 247.304435 454.139817 253.453217 
C 447.991035 259.602 444.5362 267.942709 444.5362 276.6384 
C 444.5362 285.334091 447.991035 293.6748 454.139817 299.823583 
C 460.2886 305.972365 468.629309 309.4272 477.325 309.4272 
z
" clip-path="url(#pc69208f8db)" style="fill: #1d1d1f; stroke: #1d1d1f; stroke-linejoin: miter"/>
   </g>
   <g id="text_16">
    <!-- VS -->
    <g style="fill: #ffffff" transform="translate(450.431875 286.57215) scale(0.36 -0.36)">
     <defs>
      <path id="DejaVuSans-Bold-56" d="M 31 4666 
L 1241 4666 
L 2478 1222 
L 3713 4666 
L 4922 4666 
L 3194 0 
L 1759 0 
L 31 4666 
z
" transform="scale(0.015625)"/>
     </defs>
     <use xlink:href="#DejaVuSans-Bold-56"/>
     <use xlink:href="#DejaVuSans-Bold-53" transform="translate(77.392578 0)"/>
    </g>
   </g>
  </g>
 </g>
 <defs>
  <clipPath id="pc69208f8db">
   <rect x="138.745" y="7.2" width="677.16" height="498.96"/>
  </clipPath>
 </defs>
</svg>
